<svg xmlns="http://www.w3.org/2000/svg" viewBox="0 0 48 48" fill="none" stroke="currentColor" stroke-width="3" stroke-linecap="round" stroke-linejoin="round">
  <g transform="scale(2)" stroke-width="1.5">
    <g stroke="none" fill="var(--ic-fill, #3b82f6)">
      <path d="M12 6a2 2 0 1 0 4 0a2 2 0 1 0 -4 0" />
      <path d="M6 12a2 2 0 1 0 4 0a2 2 0 1 0 -4 0" />
      <path d="M15 18a2 2 0 1 0 4 0a2 2 0 1 0 -4 0" />
    </g>
    <path d="M12 6a2 2 0 1 0 4 0a2 2 0 1 0 -4 0" />
    <path d="M4 6l8 0" />
    <path d="M16 6l4 0" />
    <path d="M6 12a2 2 0 1 0 4 0a2 2 0 1 0 -4 0" />
    <path d="M4 12l2 0" />
    <path d="M10 12l10 0" />
    <path d="M15 18a2 2 0 1 0 4 0a2 2 0 1 0 -4 0" />
    <path d="M4 18l11 0" />
    <path d="M19 18l1 0" />
  </g>
</svg>
